<svg version="1.1" id="Layer_1" xmlns="http://www.w3.org/2000/svg" xmlns:xlink="http://www.w3.org/1999/xlink" x="0px" y="0px"
	 width="100%" viewBox="0 0 415 415" enable-background="new 0 0 415 415" xml:space="preserve">
<path fill="#FEFEFF" opacity="1.000000" stroke="none" 
	d="
M229.000000,416.000000 
	C152.666672,416.000000 76.833351,416.000000 1.000020,416.000000 
	C1.000014,277.666687 1.000014,139.333389 1.000007,1.000057 
	C139.333298,1.000038 277.666595,1.000038 415.999908,1.000019 
	C415.999939,139.333267 415.999939,277.666534 415.999969,415.999908 
	C353.833344,416.000000 291.666656,416.000000 229.000000,416.000000 
M258.061066,12.892297 
	C258.061066,12.892297 258.156342,12.853798 257.624054,12.318889 
	C236.454865,6.196708 214.752457,6.536255 193.043076,7.038902 
	C191.939621,7.064451 190.848312,7.615375 189.381119,7.823719 
	C189.381119,7.823719 189.038574,7.994987 188.167938,7.845914 
	C185.402390,8.216213 182.636841,8.586512 179.037704,8.903143 
	C170.460678,10.716965 161.721298,11.980294 153.338501,14.452694 
	C132.179993,20.693138 112.504951,30.183313 94.470482,42.983120 
	C66.471893,62.854862 44.968063,88.252396 29.928505,119.076912 
	C13.331961,153.092606 7.348513,188.975601 10.910828,226.638885 
	C12.952478,248.224686 18.528927,268.852142 27.398815,288.449890 
	C42.033337,320.784485 63.762135,347.642395 92.801132,368.217468 
	C137.128113,399.624542 186.428818,411.685852 240.055801,403.324493 
	C324.045105,390.229126 389.052063,327.495605 405.395721,243.841385 
	C415.330811,192.989120 406.339935,145.107346 379.249603,100.839157 
	C361.039368,71.081932 336.500519,47.690678 305.813019,31.233669 
	C294.206482,25.009342 281.420013,20.985249 268.769440,15.468438 
	C268.165558,15.342577 267.561646,15.216716 266.665924,14.892581 
	C266.665924,14.892581 266.313232,14.901729 265.811920,14.297803 
	C263.228058,13.795055 260.644226,13.292309 258.061066,12.892297 
z"/>
<path fill="#0367FE" opacity="1.000000" stroke="none" 
	d="
M189.038574,7.994987 
	C189.038574,7.994987 189.381119,7.823719 190.054535,7.917729 
	C208.700317,8.246224 226.748993,6.826889 244.534454,10.913423 
	C248.988541,11.936832 253.611176,12.226766 258.156342,12.853798 
	C258.156342,12.853798 258.061066,12.892297 258.257751,13.168799 
	C261.074066,13.930777 263.693634,14.416252 266.313232,14.901728 
	C266.313232,14.901729 266.665924,14.892581 267.015503,15.233488 
	C267.967194,15.702338 268.569275,15.830283 269.171387,15.958227 
	C281.420013,20.985249 294.206482,25.009342 305.813019,31.233669 
	C336.500519,47.690678 361.039368,71.081932 379.249603,100.839157 
	C406.339935,145.107346 415.330811,192.989120 405.395721,243.841385 
	C389.052063,327.495605 324.045105,390.229126 240.055801,403.324493 
	C186.428818,411.685852 137.128113,399.624542 92.801132,368.217468 
	C63.762135,347.642395 42.033337,320.784485 27.398815,288.449890 
	C18.528927,268.852142 12.952478,248.224686 10.910828,226.638885 
	C7.348513,188.975601 13.331961,153.092606 29.928505,119.076912 
	C44.968063,88.252396 66.471893,62.854862 94.470482,42.983120 
	C112.504951,30.183313 132.179993,20.693138 153.338501,14.452694 
	C161.721298,11.980294 170.460678,10.716965 179.903687,8.968521 
	C183.525955,8.687595 186.282272,8.341291 189.038574,7.994987 
M202.315338,108.829079 
	C196.871262,110.253181 190.605392,110.439590 186.170822,113.384064 
	C179.065125,118.102112 171.371017,118.739403 163.563904,120.034645 
	C134.934433,124.784424 112.133438,137.070404 102.843430,166.973694 
	C102.255081,168.867508 100.131142,170.926407 98.237663,171.660797 
	C90.295677,174.740997 85.263626,180.607285 84.385406,188.604385 
	C83.250687,198.937317 83.018730,209.496918 83.729935,219.867569 
	C84.383415,229.396561 89.412643,236.683014 98.989746,240.290512 
	C100.780647,240.965118 102.478325,243.400375 103.120735,245.379578 
	C110.561340,268.303497 126.451393,282.185699 149.314545,288.205902 
	C158.450668,290.611603 167.908264,291.868744 177.272629,293.301666 
	C181.343842,293.924622 183.162689,295.608093 182.960938,299.796844 
	C182.744812,304.284271 182.897141,308.790344 182.919373,313.288116 
	C182.953857,320.264709 184.123810,321.199188 190.512268,318.769135 
	C219.452652,307.760803 248.381149,296.720642 277.276031,285.593506 
	C295.994995,278.385040 308.450134,265.195374 314.976257,246.165924 
	C315.863220,243.579544 318.436523,240.921677 320.921143,239.661057 
	C327.110016,236.521027 331.472412,232.115921 333.305267,225.450943 
	C336.917419,212.315552 336.863495,199.114899 333.291229,185.991577 
	C331.587311,179.732010 327.819092,174.827347 321.644012,172.501663 
	C317.606995,170.981232 315.716827,168.341461 314.402344,164.409409 
	C308.274872,146.079773 296.209015,132.860336 277.992279,126.555260 
	C266.762482,122.668472 254.756104,121.036980 243.119308,118.303833 
	C241.074585,117.823593 239.115784,116.947601 237.147705,116.176765 
	C231.944702,114.138954 226.910248,111.261345 221.519821,110.234535 
	C216.772781,109.330284 214.257477,107.852432 214.323975,102.902702 
	C214.341705,101.583466 214.153458,100.223175 213.818741,98.944855 
	C212.914215,95.490440 213.712357,93.323219 217.051620,91.203644 
	C224.031631,86.773132 225.460403,77.316910 220.567200,71.033211 
	C216.870377,66.285851 211.950317,64.289444 205.986923,65.689949 
	C200.285126,67.029022 196.519150,70.663246 195.302155,76.373184 
	C194.005798,82.455429 195.821762,87.855087 201.176041,91.154312 
	C204.474686,93.186874 205.453156,95.254814 204.493820,98.865402 
	C203.686829,101.902641 203.386978,105.074631 202.315338,108.829079 
z"/>
<path fill="#196CE4" opacity="1.000000" stroke="none" 
	d="
M257.890198,12.586343 
	C253.611176,12.226766 248.988541,11.936832 244.534454,10.913423 
	C226.748993,6.826889 208.700317,8.246224 190.239655,7.966712 
	C190.848312,7.615375 191.939621,7.064451 193.043076,7.038902 
	C214.752457,6.536255 236.454865,6.196708 257.890198,12.586343 
z"/>
<path fill="#196CE4" opacity="1.000000" stroke="none" 
	d="
M266.062561,14.599766 
	C263.693634,14.416252 261.074066,13.930777 258.257416,13.117432 
	C260.644226,13.292309 263.228058,13.795055 266.062561,14.599766 
z"/>
<path fill="#196CE4" opacity="1.000000" stroke="none" 
	d="
M188.603256,7.920451 
	C186.282272,8.341291 183.525955,8.687595 180.320465,8.995355 
	C182.636841,8.586512 185.402390,8.216213 188.603256,7.920451 
z"/>
<path fill="#196CE4" opacity="1.000000" stroke="none" 
	d="
M268.970398,15.713333 
	C268.569275,15.830283 267.967194,15.702338 267.161438,15.332624 
	C267.561646,15.216716 268.165558,15.342577 268.970398,15.713333 
z"/>
<path fill="#FAFDFF" opacity="1.000000" stroke="none" 
	d="
M202.588989,108.508026 
	C203.386978,105.074631 203.686829,101.902641 204.493820,98.865402 
	C205.453156,95.254814 204.474686,93.186874 201.176041,91.154312 
	C195.821762,87.855087 194.005798,82.455429 195.302155,76.373184 
	C196.519150,70.663246 200.285126,67.029022 205.986923,65.689949 
	C211.950317,64.289444 216.870377,66.285851 220.567200,71.033211 
	C225.460403,77.316910 224.031631,86.773132 217.051620,91.203644 
	C213.712357,93.323219 212.914215,95.490440 213.818741,98.944855 
	C214.153458,100.223175 214.341705,101.583466 214.323975,102.902702 
	C214.257477,107.852432 216.772781,109.330284 221.519821,110.234535 
	C226.910248,111.261345 231.944702,114.138954 237.147705,116.176765 
	C239.115784,116.947601 241.074585,117.823593 243.119308,118.303833 
	C254.756104,121.036980 266.762482,122.668472 277.992279,126.555260 
	C296.209015,132.860336 308.274872,146.079773 314.402344,164.409409 
	C315.716827,168.341461 317.606995,170.981232 321.644012,172.501663 
	C327.819092,174.827347 331.587311,179.732010 333.291229,185.991577 
	C336.863495,199.114899 336.917419,212.315552 333.305267,225.450943 
	C331.472412,232.115921 327.110016,236.521027 320.921143,239.661057 
	C318.436523,240.921677 315.863220,243.579544 314.976257,246.165924 
	C308.450134,265.195374 295.994995,278.385040 277.276031,285.593506 
	C248.381149,296.720642 219.452652,307.760803 190.512268,318.769135 
	C184.123810,321.199188 182.953857,320.264709 182.919373,313.288116 
	C182.897141,308.790344 182.744812,304.284271 182.960938,299.796844 
	C183.162689,295.608093 181.343842,293.924622 177.272629,293.301666 
	C167.908264,291.868744 158.450668,290.611603 149.314545,288.205902 
	C126.451393,282.185699 110.561340,268.303497 103.120735,245.379578 
	C102.478325,243.400375 100.780647,240.965118 98.989746,240.290512 
	C89.412643,236.683014 84.383415,229.396561 83.729935,219.867569 
	C83.018730,209.496918 83.250687,198.937317 84.385406,188.604385 
	C85.263626,180.607285 90.295677,174.740997 98.237663,171.660797 
	C100.131142,170.926407 102.255081,168.867508 102.843430,166.973694 
	C112.133438,137.070404 134.934433,124.784424 163.563904,120.034645 
	C171.371017,118.739403 179.065125,118.102112 186.170822,113.384064 
	C190.605392,110.439590 196.871262,110.253181 202.588989,108.508026 
M132.782898,246.591431 
	C139.343292,257.301422 150.005173,261.417419 161.428970,263.914459 
	C183.922974,268.831268 206.778595,268.848022 229.563004,267.337341 
	C241.111954,266.571625 252.695328,264.524384 263.965485,261.817261 
	C277.628326,258.535461 286.645020,249.584213 290.114807,235.684769 
	C295.046112,215.930695 294.949799,196.106720 290.244568,176.344986 
	C286.940918,162.469788 277.970703,153.962845 264.460114,149.749893 
	C249.815140,145.183167 234.763153,144.027557 219.576767,143.776947 
	C199.578751,143.446915 179.610092,143.463379 159.929077,147.926346 
	C142.647217,151.845276 130.808105,161.269791 127.171967,179.361984 
	C124.289696,193.703186 123.652451,208.205429 125.795174,222.596420 
	C126.977600,230.537857 130.133270,238.185486 132.782898,246.591431 
z"/>
<path fill="#0467FD" opacity="1.000000" stroke="none" 
	d="
M132.591141,246.278503 
	C130.133270,238.185486 126.977600,230.537857 125.795174,222.596420 
	C123.652451,208.205429 124.289696,193.703186 127.171967,179.361984 
	C130.808105,161.269791 142.647217,151.845276 159.929077,147.926346 
	C179.610092,143.463379 199.578751,143.446915 219.576767,143.776947 
	C234.763153,144.027557 249.815140,145.183167 264.460114,149.749893 
	C277.970703,153.962845 286.940918,162.469788 290.244568,176.344986 
	C294.949799,196.106720 295.046112,215.930695 290.114807,235.684769 
	C286.645020,249.584213 277.628326,258.535461 263.965485,261.817261 
	C252.695328,264.524384 241.111954,266.571625 229.563004,267.337341 
	C206.778595,268.848022 183.922974,268.831268 161.428970,263.914459 
	C150.005173,261.417419 139.343292,257.301422 132.591141,246.278503 
M164.204788,192.025116 
	C164.204788,192.025116 164.344650,192.286865 163.748123,192.336700 
	C163.662140,192.688248 163.576157,193.039795 163.091232,193.302811 
	C163.091232,193.302811 163.493851,193.406509 162.731827,193.449753 
	C159.060349,199.466187 158.795563,211.502274 162.137955,215.906097 
	C162.137955,215.906097 162.181503,215.815720 162.060455,216.576111 
	C162.887878,217.513840 163.715302,218.451569 164.549240,219.508331 
	C164.549240,219.508331 164.641968,219.583252 164.449677,220.140213 
	C164.774170,220.212280 165.098679,220.284348 165.477768,220.456223 
	C165.477768,220.456223 165.591492,220.452499 165.452408,221.129913 
	C166.036575,221.353958 166.620758,221.578003 167.106873,221.850082 
	C167.106873,221.850082 167.115341,221.741241 167.430664,222.431076 
	C172.449936,224.964539 176.261414,224.292831 178.671997,220.873047 
	C178.671997,220.873047 178.512680,220.465317 179.167023,220.582947 
	C179.428314,220.031693 179.689606,219.480438 179.991714,218.998306 
	C179.991714,218.998306 179.924606,218.954285 180.518021,218.963547 
	C180.728088,218.301254 180.938156,217.638962 181.139206,216.410614 
	C181.360367,215.926407 181.581543,215.442200 182.567459,214.674683 
	C182.831024,208.815292 183.123154,202.956711 183.289444,197.094559 
	C183.299759,196.730484 182.321518,196.338379 181.682632,195.799973 
	C181.682632,195.799973 181.752457,195.612747 181.907166,194.783829 
	C181.923950,190.573013 178.881012,189.112106 175.600296,188.455460 
	C171.804367,187.695724 167.705475,186.878189 165.038712,191.044800 
	C165.038712,191.044800 165.119125,191.051666 164.601868,191.275986 
	C164.502075,191.619110 164.402283,191.962219 164.204788,192.025116 
M255.440994,217.625977 
	C255.521255,217.210159 255.601517,216.794357 255.648392,216.171890 
	C255.648392,216.171890 255.791763,216.019333 256.545380,215.690292 
	C256.574768,208.576004 256.688934,201.459564 256.508911,194.350586 
	C256.489838,193.598541 254.743088,192.890244 253.900848,192.074585 
	C253.900848,192.074585 253.858383,192.202606 253.750763,191.648819 
	C253.434158,191.477890 253.117538,191.306961 252.923264,191.097412 
	C252.923264,191.097412 252.843887,191.198212 252.841293,190.427780 
	C247.655792,186.534714 242.135117,186.959427 239.362473,191.390305 
	C239.362473,191.390305 239.399506,191.512344 238.820358,191.407913 
	C238.719070,191.739609 238.617798,192.071289 238.358231,192.335510 
	C238.358231,192.335510 238.466293,192.469421 237.710602,192.397598 
	C233.722931,197.606186 232.559906,211.632568 235.760315,216.875885 
	C236.016006,217.294769 236.888718,217.337006 237.443268,217.643890 
	C237.443268,217.643890 237.537338,217.630936 237.265915,218.316315 
	C237.904633,218.830658 238.543350,219.345016 239.054947,219.952423 
	C239.054947,219.952423 239.141693,219.820923 239.120377,220.523651 
	C240.816315,222.077957 242.008102,225.300690 245.725769,222.209305 
	C246.161224,222.266022 246.596695,222.322723 247.598862,222.793900 
	C249.260681,222.044968 250.922501,221.296036 252.672455,220.946960 
	C252.672455,220.946960 252.619263,220.541122 253.203857,220.618607 
	C253.343704,220.289444 253.483536,219.960281 253.888092,219.938278 
	C253.888092,219.938278 253.593079,219.660110 254.256577,219.619324 
	C254.470169,219.040649 254.683777,218.461975 254.962219,217.953522 
	C254.962219,217.953522 254.866760,217.948364 255.440994,217.625977 
z"/>
<path fill="#F3FAFE" opacity="1.000000" stroke="none" 
	d="
M181.752457,195.612747 
	C181.752457,195.612747 181.682632,195.799973 181.743652,196.316055 
	C181.804031,202.874084 181.803375,208.916046 181.802719,214.957993 
	C181.581543,215.442200 181.360367,215.926407 180.904358,216.880859 
	C180.421204,217.885513 180.172913,218.419891 179.924606,218.954285 
	C179.924606,218.954285 179.991714,218.998306 179.708313,219.056961 
	C179.120834,219.565521 178.816757,220.015427 178.512695,220.465332 
	C178.512680,220.465317 178.671997,220.873047 178.227554,220.764603 
	C174.227188,221.017853 170.671265,221.379547 167.115341,221.741241 
	C167.115341,221.741241 167.106873,221.850082 167.054169,221.563675 
	C166.531464,221.002350 166.061478,220.727432 165.591492,220.452499 
	C165.591492,220.452499 165.477768,220.456223 165.387146,220.221313 
	C165.142700,219.747559 164.924515,219.613174 164.641968,219.583252 
	C164.641968,219.583252 164.549240,219.508331 164.465378,219.155914 
	C163.648178,217.807556 162.914841,216.811646 162.181503,215.815720 
	C162.181503,215.815720 162.137955,215.906097 162.204468,215.472610 
	C160.723495,207.717728 160.856735,200.491348 163.493851,193.406509 
	C163.493851,193.406509 163.091232,193.302811 163.520111,193.245300 
	C164.080872,192.887466 164.212769,192.587173 164.344650,192.286865 
	C164.344650,192.286865 164.204788,192.025116 164.491791,192.042511 
	C164.892227,191.723831 165.005676,191.387756 165.119125,191.051666 
	C165.119125,191.051666 165.038712,191.044800 165.420914,191.027725 
	C173.574661,187.996216 176.602509,188.869888 181.752457,195.612747 
z"/>
<path fill="#F4FBFE" opacity="1.000000" stroke="none" 
	d="
M247.032150,222.379425 
	C246.596695,222.322723 246.161224,222.266022 245.067566,222.111511 
	C242.653488,221.282776 240.897583,220.551849 239.141693,219.820923 
	C239.141693,219.820923 239.054947,219.952423 239.066025,219.618713 
	C238.563843,218.733643 238.050598,218.182281 237.537338,217.630936 
	C237.537338,217.630936 237.443268,217.643890 237.399811,217.207108 
	C234.766403,208.534836 234.764755,200.417557 238.466293,192.469421 
	C238.466293,192.469421 238.358231,192.335510 238.648148,192.295380 
	C239.207245,192.079300 239.361053,191.831665 239.399506,191.512344 
	C239.399506,191.512344 239.362473,191.390305 239.788177,191.302765 
	C244.420517,188.707214 248.631317,189.289780 252.843887,191.198212 
	C252.843887,191.198212 252.923264,191.097412 252.937073,191.379013 
	C253.253387,191.841278 253.555878,192.021942 253.858383,192.202606 
	C253.858383,192.202606 253.900848,192.074585 253.934570,192.479828 
	C258.275055,200.304947 257.186707,208.150055 255.791763,216.019333 
	C255.791763,216.019333 255.648392,216.171890 255.416183,216.467041 
	C255.078232,217.157578 254.972488,217.552963 254.866760,217.948364 
	C254.866760,217.948364 254.962219,217.953522 254.665924,218.042542 
	C254.110764,218.641083 253.851913,219.150589 253.593079,219.660110 
	C253.593079,219.660110 253.888092,219.938278 253.521057,219.849121 
	C252.847977,219.932907 252.669739,220.193298 252.619263,220.541122 
	C252.619263,220.541122 252.672455,220.946960 252.276794,220.823349 
	C250.264786,221.259628 248.648468,221.819519 247.032150,222.379425 
z"/>
<path fill="#2E77DD" opacity="1.000000" stroke="none" 
	d="
M238.088440,192.433502 
	C234.764755,200.417557 234.766403,208.534836 237.415527,217.162308 
	C236.888718,217.337006 236.016006,217.294769 235.760315,216.875885 
	C232.559906,211.632568 233.722931,197.606186 238.088440,192.433502 
z"/>
<path fill="#2E77DD" opacity="1.000000" stroke="none" 
	d="
M256.168579,215.854813 
	C257.186707,208.150055 258.275055,200.304947 253.883057,192.523376 
	C254.743088,192.890244 256.489838,193.598541 256.508911,194.350586 
	C256.688934,201.459564 256.574768,208.576004 256.168579,215.854813 
z"/>
<path fill="#2571DD" opacity="1.000000" stroke="none" 
	d="
M181.829803,195.198288 
	C176.602509,188.869888 173.574661,187.996216 165.426697,191.067657 
	C167.705475,186.878189 171.804367,187.695724 175.600296,188.455460 
	C178.881012,189.112106 181.923950,190.573013 181.829803,195.198288 
z"/>
<path fill="#2571DD" opacity="1.000000" stroke="none" 
	d="
M163.112839,193.428131 
	C160.856735,200.491348 160.723495,207.717728 162.254486,215.468781 
	C158.795563,211.502274 159.060349,199.466187 163.112839,193.428131 
z"/>
<path fill="#2E77DD" opacity="1.000000" stroke="none" 
	d="
M252.842590,190.812988 
	C248.631317,189.289780 244.420517,188.707214 239.842743,191.335785 
	C242.135117,186.959427 247.655792,186.534714 252.842590,190.812988 
z"/>
<path fill="#2571DD" opacity="1.000000" stroke="none" 
	d="
M182.185089,214.816345 
	C181.803375,208.916046 181.804031,202.874084 181.803955,196.395721 
	C182.321518,196.338379 183.299759,196.730484 183.289444,197.094559 
	C183.123154,202.956711 182.831024,208.815292 182.185089,214.816345 
z"/>
<path fill="#2571DD" opacity="1.000000" stroke="none" 
	d="
M167.273010,222.086166 
	C170.671265,221.379547 174.227188,221.017853 178.125275,220.571106 
	C176.261414,224.292831 172.449936,224.964539 167.273010,222.086166 
z"/>
<path fill="#2E77DD" opacity="1.000000" stroke="none" 
	d="
M239.131042,220.172287 
	C240.897583,220.551849 242.653488,221.282776 244.741486,222.168106 
	C242.008102,225.300690 240.816315,222.077957 239.131042,220.172287 
z"/>
<path fill="#2E77DD" opacity="1.000000" stroke="none" 
	d="
M247.315506,222.586670 
	C248.648468,221.819519 250.264786,221.259628 252.232727,220.623413 
	C250.922501,221.296036 249.260681,222.044968 247.315506,222.586670 
z"/>
<path fill="#2571DD" opacity="1.000000" stroke="none" 
	d="
M162.120972,216.195923 
	C162.914841,216.811646 163.648178,217.807556 164.462128,219.096390 
	C163.715302,218.451569 162.887878,217.513840 162.120972,216.195923 
z"/>
<path fill="#2571DD" opacity="1.000000" stroke="none" 
	d="
M180.221313,218.958923 
	C180.172913,218.419891 180.421204,217.885513 180.908844,217.163910 
	C180.938156,217.638962 180.728088,218.301254 180.221313,218.958923 
z"/>
<path fill="#2E77DD" opacity="1.000000" stroke="none" 
	d="
M237.401627,217.973633 
	C238.050598,218.182281 238.563843,218.733643 239.129578,219.572174 
	C238.543350,219.345016 237.904633,218.830658 237.401627,217.973633 
z"/>
<path fill="#2E77DD" opacity="1.000000" stroke="none" 
	d="
M253.924835,219.639709 
	C253.851913,219.150589 254.110764,218.641083 254.633484,218.007416 
	C254.683777,218.461975 254.470169,219.040649 253.924835,219.639709 
z"/>
<path fill="#2571DD" opacity="1.000000" stroke="none" 
	d="
M178.839859,220.524139 
	C178.816757,220.015427 179.120834,219.565521 179.687897,219.022400 
	C179.689606,219.480438 179.428314,220.031693 178.839859,220.524139 
z"/>
<path fill="#2571DD" opacity="1.000000" stroke="none" 
	d="
M165.521942,220.791199 
	C166.061478,220.727432 166.531464,221.002350 167.103180,221.539673 
	C166.620758,221.578003 166.036575,221.353958 165.521942,220.791199 
z"/>
<path fill="#2571DD" opacity="1.000000" stroke="none" 
	d="
M164.046387,192.311783 
	C164.212769,192.587173 164.080872,192.887466 163.719589,193.289551 
	C163.576157,193.039795 163.662140,192.688248 164.046387,192.311783 
z"/>
<path fill="#2E77DD" opacity="1.000000" stroke="none" 
	d="
M253.804565,191.925720 
	C253.555878,192.021942 253.253387,191.841278 252.875916,191.398331 
	C253.117538,191.306961 253.434158,191.477890 253.804565,191.925720 
z"/>
<path fill="#2E77DD" opacity="1.000000" stroke="none" 
	d="
M255.153870,217.787170 
	C254.972488,217.552963 255.078232,217.157578 255.432877,216.570358 
	C255.601517,216.794357 255.521255,217.210159 255.153870,217.787170 
z"/>
<path fill="#2571DD" opacity="1.000000" stroke="none" 
	d="
M164.545822,219.861725 
	C164.924515,219.613174 165.142700,219.747559 165.359863,220.171417 
	C165.098679,220.284348 164.774170,220.212280 164.545822,219.861725 
z"/>
<path fill="#2E77DD" opacity="1.000000" stroke="none" 
	d="
M239.109924,191.460129 
	C239.361053,191.831665 239.207245,192.079300 238.727295,192.329132 
	C238.617798,192.071289 238.719070,191.739609 239.109924,191.460129 
z"/>
<path fill="#2E77DD" opacity="1.000000" stroke="none" 
	d="
M252.911560,220.579865 
	C252.669739,220.193298 252.847977,219.932907 253.388687,219.695557 
	C253.483536,219.960281 253.343704,220.289444 252.911560,220.579865 
z"/>
<path fill="#2571DD" opacity="1.000000" stroke="none" 
	d="
M164.860504,191.163818 
	C165.005676,191.387756 164.892227,191.723831 164.540634,192.182632 
	C164.402283,191.962219 164.502075,191.619110 164.860504,191.163818 
z"/>
</svg>